<mxfile host="65bd71144e">
    <diagram id="px3hoDM4YlP0pP7gUFGq" name="Page-1">
        <mxGraphModel dx="680" dy="568" grid="1" gridSize="10" guides="1" tooltips="1" connect="1" arrows="1" fold="1" page="1" pageScale="1" pageWidth="850" pageHeight="1100" math="0" shadow="0">
            <root>
                <mxCell id="0"/>
                <mxCell id="1" parent="0"/>
                <mxCell id="4" value="removing missing IDs (n=4)" style="edgeStyle=none;html=1;" edge="1" parent="1" source="2" target="3">
                    <mxGeometry relative="1" as="geometry"/>
                </mxCell>
                <mxCell id="2" value="870 questionnaires rentrés" style="rounded=1;whiteSpace=wrap;html=1;" vertex="1" parent="1">
                    <mxGeometry x="365" y="40" width="120" height="60" as="geometry"/>
                </mxCell>
                <mxCell id="6" value="exclusion questionnaires vides (n=16)" style="edgeStyle=none;html=1;" edge="1" parent="1" source="3" target="5">
                    <mxGeometry relative="1" as="geometry"/>
                </mxCell>
                <mxCell id="3" value="866 questionnaires&lt;br&gt;380 IDs" style="whiteSpace=wrap;html=1;rounded=1;" vertex="1" parent="1">
                    <mxGeometry x="365" y="180" width="120" height="60" as="geometry"/>
                </mxCell>
                <mxCell id="8" value="Les IDs ne sont pas suffisants donc je regroupe pour ID + FILIERE.&lt;br&gt;Si pour une triplette ID + FILIERE j'ai tjrs plus que 2 lignes, je prends la moyenne" style="edgeStyle=none;html=1;" edge="1" parent="1" source="5" target="7">
                    <mxGeometry relative="1" as="geometry"/>
                </mxCell>
                <mxCell id="5" value="850 questionnaires&lt;br&gt;379 IDs" style="whiteSpace=wrap;html=1;rounded=1;" vertex="1" parent="1">
                    <mxGeometry x="365" y="320" width="120" height="60" as="geometry"/>
                </mxCell>
                <mxCell id="10" value="Si on a besoin de ID+FILIERE pour identifier les lignes, on va exclure les lignes où la valeur &quot;filière&quot; n'est pas reinseignée (n=9)" style="edgeStyle=none;html=1;" edge="1" parent="1" source="7" target="9">
                    <mxGeometry relative="1" as="geometry"/>
                </mxCell>
                <mxCell id="7" value="776 questionnaires" style="whiteSpace=wrap;html=1;rounded=1;" vertex="1" parent="1">
                    <mxGeometry x="365" y="460" width="120" height="60" as="geometry"/>
                </mxCell>
                <mxCell id="9" value="767 questionnaires&lt;br&gt;413 identités uniques données par ID+FILIERE" style="whiteSpace=wrap;html=1;rounded=1;" vertex="1" parent="1">
                    <mxGeometry x="230" y="600" width="390" height="60" as="geometry"/>
                </mxCell>
            </root>
        </mxGraphModel>
    </diagram>
</mxfile>